{"title":"Ghost  Ship(2002).mp4","uid":9679850,"size":2532457662,"categoryP":"video","categoryS":"hd___movies","magnet":"?xt=urn:btih:be49fd32326f6b7bbc37750f9781fa7dc8e97421&amp;dn=Ghost++Ship%282002%29.mp4&amp;tr=udp%3A%2F%2Ftracker.openbittorrent.com%3A80&amp;tr=udp%3A%2F%2Fopen.demonii.com%3A1337&amp;tr=udp%3A%2F%2Ftracker.coppersurfer.tk%3A6969&amp;tr=udp%3A%2F%2Fexodus.desync.com%3A6969","seeders":1,"leechers":0,"uploader":"PapaFatHead","files":1,"time":1393645416,"description":" &lt;a href=&quot;http://www.imdb.com/title/tt0288477/&quot; rel=&quot;nofollow&quot; target=&quot;_NEW&quot;&gt;http://www.imdb.com/title/tt0288477/&lt;/a&gt;\n\nGeneral\nComplete name                  : Ghost Ship(2002).mp4\nFormat                         : MPEG-4\nFormat profile                 : Base Media / Version 2\nCodec ID                       : mp42\nFile size                      : 2.36 GiB\nDuration                       : 1h 30mn\nOverall bit rate mode          : Variable\nOverall bit rate               : 3 722 Kbps\n\n\nVideo\nID                             : 1\nFormat                         : AVC\nFormat/Info                    : Advanced Video Codec\nFormat profile                 : &lt;a class=&quot;__cf_email__&quot; href=&quot;/cdn-cgi/l/email-protection&quot; data-cfemail=&quot;c58daca2ad8589f1ebf4&quot;&gt;[email&amp;#160;protected]&lt;/a&gt;&lt;script cf-hash='f9e31' type=&quot;text/javascript&quot;&gt;\n/* &lt;![CDATA[ */!function(){try{var t=&quot;currentScript&quot;in document?document.currentScript:function(){for(var t=document.getElementsByTagName(&quot;script&quot;),e=t.length;e--;)if(t[e].getAttribute(&quot;cf-hash&quot;))return t[e]}();if(t&amp;&amp;t.previousSibling){var e,r,n,i,c=t.previousSibling,a=c.getAttribute(&quot;data-cfemail&quot;);if(a){for(e=&quot;&quot;,r=parseInt(a.substr(0,2),16),n=2;a.length-n;n+=2)i=parseInt(a.substr(n,2),16)^r,e+=String.fromCharCode(i);e=document.createTextNode(e),c.parentNode.replaceChild(e,c)}}}catch(u){}}();/* ]]&gt; */&lt;/script&gt;\nFormat settings, CABAC         : Yes\nFormat settings, ReFrames      : 4 frames\nCodec ID                       : avc1\nCodec ID/Info                  : Advanced Video Coding\nDuration                       : 1h 30mn\nBit rate                       : 3 517 Kbps\nWidth                          : 1 912 pixels\nHeight                         : 1 080 pixels\nDisplay aspect ratio           : 16:9\nFrame rate mode                : Variable\nFrame rate                     : 23.976 fps\nMinimum frame rate             : 23.974 fps\nMaximum frame rate             : 23.981 fps\nColor space                    : YUV\nChroma subsampling             : 4:2:0\nBit depth                      : 8 bits\nScan type                      : Progressive\nBits/(Pixel*Frame)             : 0.071\nStream size                    : 2.23 GiB (94%)\nWriting library                : x264 core 130 r2273 b3065e6\n\nAudio\nID                             : 2\nFormat                         : AAC\nFormat/Info                    : Advanced Audio Codec\nFormat profile                 : LC\nCodec ID                       : 40\nDuration                       : 1h 30mn\nBit rate mode                  : Variable\nBit rate                       : 160 Kbps\nMaximum bit rate               : 309 Kbps\nChannel(s)                     : 2 channels\nChannel positions              : Front: L R\nSampling rate                  : 48.0 KHz\nCompression mode               : Lossy\nStream size                    : 104 MiB (4%)\nLanguage                       : English\n\n\nText #1\nID                             : 3\nFormat                         : mp4s\nCodec ID                       : E0\nDuration                       : 1h 30mn\nBit rate mode                  : Variable\nBit rate                       : 5 260 bps\nMaximum bit rate               : 4 245 Mbps\nStream size                    : 3.41 MiB (0%)\nLanguage                       : Dutch\n\n\nText #2\nID                             : 4\nFormat                         : mp4s\nCodec ID                       : E0\nDuration                       : 1h 30mn\nBit rate mode                  : Variable\nBit rate                       : 5 108 bps\nMaximum bit rate               : 4 194 Mbps\nStream size                    : 3.31 MiB (0%)\nLanguage                       : Chinese\n\n\nText #3\nID                             : 5\nFormat                         : mp4s\nCodec ID                       : E0\nDuration                       : 1h 30mn\nBit rate mode                  : Variable\nBit rate                       : 5 625 bps\nMaximum bit rate               : 4 247 Mbps\nStream size                    : 3.65 MiB (0%)\nLanguage                       : French\n\n\nText #4\nID                             : 6\nFormat                         : mp4s\nCodec ID                       : E0\nDuration                       : 1h 30mn\nBit rate mode                  : Variable\nBit rate                       : 8 091 bps\nMaximum bit rate               : 4 194 Mbps\nStream size                    : 5.25 MiB (0%)\nLanguage                       : German\n\n\nText #5\nID                             : 7\nFormat                         : mp4s\nCodec ID                       : E0\nDuration                       : 1h 30mn\nBit rate mode                  : Variable\nBit rate                       : 6 374 bps\nMaximum bit rate               : 4 231 Mbps\nStream size                    : 4.13 MiB (0%)\nLanguage                       : Spanish\n\n\nText #6\nID                             : 8\nFormat                         : mp4s\nCodec ID                       : E0\nDuration                       : 1h 30mn\nBit rate mode                  : Variable\nBit rate                       : 4 944 bps\nMaximum bit rate               : 4 166 Mbps\nStream size                    : 3.21 MiB (0%)\nLanguage                       : Swedish\n\n\nText #7\nID                             : 9\nFormat                         : mp4s\nCodec ID                       : E0\nDuration                       : 1h 30mn\nBit rate mode                  : Variable\nBit rate                       : 7 179 bps\nMaximum bit rate               : 4 166 Mbps\nStream size                    : 4.66 MiB (0%)\nLanguage                       : English\n","torrent":{"xt":"urn:btih:be49fd32326f6b7bbc37750f9781fa7dc8e97421","amp;dn":"Ghost++Ship%282002%29.mp4","amp;tr":["udp%3A%2F%2Ftracker.openbittorrent.com%3A80","udp%3A%2F%2Fopen.demonii.com%3A1337","udp%3A%2F%2Ftracker.coppersurfer.tk%3A6969","udp%3A%2F%2Fexodus.desync.com%3A6969"],"infoHash":"be49fd32326f6b7bbc37750f9781fa7dc8e97421","infoHashBuffer":{"type":"Buffer","data":[190,73,253,50,50,111,107,123,188,55,117,15,151,129,250,125,200,233,116,33]},"announce":[],"urlList":[]}}